<svg xmlns="http://www.w3.org/2000/svg" width="168" height="105" viewBox="0 0 168 105">
  <g id="Group_9094" data-name="Group 9094" transform="translate(-384.65 -1691.912)">
    <rect id="Rectangle_62" data-name="Rectangle 62" width="168" height="105" transform="translate(384.65 1691.912)" fill="#fff"/>
    <g id="Group_9096" data-name="Group 9096" transform="translate(395.563 1696.628)">
      <path id="Path_14910" data-name="Path 14910" d="M95.425,159.2l13.482-13.212a165.35,165.35,0,0,0,14.745-14.858,43.428,43.428,0,0,0,7.283-11.3,27.447,27.447,0,0,0,2.051-10.326,25,25,0,0,0-4.1-14.159,27.59,27.59,0,0,0-11.475-9.672,40,40,0,0,0-17.293-3.494,42.233,42.233,0,0,0-10.4,1.236L68.487,111.9H86a15.93,15.93,0,0,1,1.714-7.62,11.812,11.812,0,0,1,4.87-4.915,15.264,15.264,0,0,1,7.394-1.714,16.02,16.02,0,0,1,7.26,1.6,12.341,12.341,0,0,1,5.05,4.555,12.943,12.943,0,0,1,1.849,7.011,15.62,15.62,0,0,1-1.488,6.786,27.854,27.854,0,0,1-4.351,6.381q-2.864,3.246-7.057,7.3L68.37,161.722V175.79H134.2V159.828H95.425Z" transform="translate(-68.37 -82.181)"/>
      <path id="Path_14911" data-name="Path 14911" d="M262.238,129.707q.045-15.106-4.464-25.724T244.9,87.772q-8.364-5.591-19.953-5.591T205,87.75q-8.364,5.569-12.851,16.21t-4.487,25.747q-.046,15.151,4.442,25.927t12.851,16.458q8.364,5.682,20,5.727a40.239,40.239,0,0,0,9.536-1.084l27.141-36.418a87.55,87.55,0,0,0,.614-10.61M237.619,153.65q-4.735,7.98-12.671,7.981a13.291,13.291,0,0,1-9.2-3.539q-3.923-3.54-6.065-10.642a62.418,62.418,0,0,1-2.141-17.743q.044-15.736,4.779-23.628t12.625-7.891a13.259,13.259,0,0,1,9.177,3.517q3.9,3.517,6.042,10.506a60.68,60.68,0,0,1,2.141,17.5q.045,15.962-4.689,23.943" transform="translate(-115.896 -82.181)"/>
    </g>
    <rect id="Rectangle_63" data-name="Rectangle 63" width="168" height="105" transform="translate(384.65 1691.912)" fill="none"/>
  </g>
</svg>
