<svg id="Group_104" data-name="Group 104" xmlns="http://www.w3.org/2000/svg" xmlns:xlink="http://www.w3.org/1999/xlink" width="126" height="34.818" viewBox="0 0 126 34.818">
  <defs>
    <clipPath id="clip-path">
      <rect id="Rectangle_46" data-name="Rectangle 46" width="126" height="34.818"/>
    </clipPath>
  </defs>
  <path id="Path_951" data-name="Path 951" d="M183.021,38.24h-5.55V52.675h-4.846V38.24h-5.55V34.071h15.946Z" transform="translate(-125.534 -25.6)"/>
  <path id="Path_952" data-name="Path 952" d="M177.393,52.6h-4.924V38.162h-5.55V33.915h16.024v4.247h-5.55Zm-4.846-.078h4.769V38.084h5.55V33.993H167v4.091h5.55Z" transform="translate(-125.417 -25.483)"/>
  <g id="Group_105" data-name="Group 105">
    <g id="Group_104-2" data-name="Group 104" clip-path="url(#clip-path)">
      <path id="Path_953" data-name="Path 953" d="M229.247,61.168a2.872,2.872,0,0,0,3.022,3.074,2.6,2.6,0,0,0,2.528-1.485h4.143c-.834,3.127-3.7,4.481-6.722,4.481-4.4,0-7.4-2.657-7.4-7.191a7.1,7.1,0,0,1,7.3-7.113c4.846,0,7.27,3.648,7.061,8.234Zm5.5-2.475a2.722,2.722,0,0,0-2.632-2.762,2.918,2.918,0,0,0-2.866,2.762Z" transform="translate(-168.921 -39.773)"/>
      <path id="Path_954" data-name="Path 954" d="M232.1,67.161a7.632,7.632,0,0,1-5.378-1.906,7.106,7.106,0,0,1-2.061-5.324,7.009,7.009,0,0,1,2.165-5.139A7.449,7.449,0,0,1,232,52.779a6.825,6.825,0,0,1,5.088,1.99,8.406,8.406,0,0,1,2.012,6.284v.037h-9.924a2.838,2.838,0,0,0,2.982,3,2.538,2.538,0,0,0,2.492-1.461l.01-.024h4.219l-.013.049c-.753,2.824-3.28,4.51-6.76,4.51m-.1-14.3a7.091,7.091,0,0,0-7.256,7.075c0,4.412,2.821,7.152,7.361,7.152,3.422,0,5.912-1.645,6.671-4.4h-4.066a2.619,2.619,0,0,1-2.553,1.485,2.916,2.916,0,0,1-3.061-3.112l0-.041h9.93a8.314,8.314,0,0,0-1.992-6.19A6.75,6.75,0,0,0,232,52.856m2.673,5.759h-5.585l.008-.046a2.96,2.96,0,0,1,2.9-2.794,2.748,2.748,0,0,1,2.671,2.8Zm-5.492-.078h5.41A2.666,2.666,0,0,0,232,55.853a2.876,2.876,0,0,0-2.819,2.684" transform="translate(-168.804 -39.656)"/>
      <path id="Path_955" data-name="Path 955" d="M302.187,65.207c0,2.188-.417,6.383-6.748,6.383-3.127,0-6.149-.7-6.644-4.325h4.429a1.552,1.552,0,0,0,.756,1.172,3.731,3.731,0,0,0,1.615.286c2.11,0,2.319-1.485,2.319-3.153V64.3h-.052a4.249,4.249,0,0,1-3.6,1.98c-4.091,0-5.941-2.918-5.941-6.722,0-3.6,2.11-6.618,5.941-6.618a3.884,3.884,0,0,1,3.622,2.085h.052V53.326h4.247Zm-6.853-8.885c-1.954,0-2.58,1.72-2.58,3.387,0,1.589.756,3.179,2.553,3.179,1.876,0,2.684-1.485,2.684-3.153,0-1.746-.7-3.413-2.658-3.413" transform="translate(-216.638 -39.774)"/>
      <path id="Path_956" data-name="Path 956" d="M295.321,71.512c-2.613,0-6.149-.452-6.683-4.359l-.006-.044h4.506l.006.032a1.513,1.513,0,0,0,.736,1.145,3.72,3.72,0,0,0,1.6.282c2.106,0,2.28-1.473,2.28-3.114V64.228a4.313,4.313,0,0,1-3.609,1.968c-3.744,0-5.979-2.528-5.979-6.761a7.28,7.28,0,0,1,1.543-4.683,5.575,5.575,0,0,1,4.436-1.975,3.936,3.936,0,0,1,3.635,2.068V53.169h4.325v11.92a7.157,7.157,0,0,1-1.006,4.034c-1.073,1.585-3.018,2.388-5.781,2.388m-6.6-4.325c.547,3.806,4.026,4.247,6.6,4.247,6.71,0,6.71-4.775,6.71-6.344V53.246h-4.17V54.94h-.114l-.011-.02a3.866,3.866,0,0,0-3.588-2.065c-4.077,0-5.9,3.3-5.9,6.579,0,4.185,2.206,6.683,5.9,6.683a4.237,4.237,0,0,0,3.563-1.962l.011-.018h.112v1.316c0,1.615-.182,3.191-2.358,3.191a3.789,3.789,0,0,1-1.633-.291,1.571,1.571,0,0,1-.771-1.168Zm6.469-4.377c-1.913,0-2.592-1.733-2.592-3.218,0-1.03.255-3.426,2.618-3.426,1.688,0,2.7,1.291,2.7,3.452,0,1.543-.715,3.191-2.723,3.191m.026-6.566c-2.293,0-2.54,2.341-2.54,3.348,0,1.449.658,3.14,2.514,3.14,1.95,0,2.645-1.608,2.645-3.114,0-2.113-.979-3.374-2.619-3.374" transform="translate(-216.521 -39.656)"/>
      <path id="Path_957" data-name="Path 957" d="M368.866,68.029h-4.3v-1.85h-.052A4.982,4.982,0,0,1,360.4,68.42c-3.882,0-5-2.241-5-5.784v-8.13h4.429v7.843c0,1.8.756,2.423,2.189,2.423.938,0,2.423-.625,2.423-3.023V54.506h4.429Z" transform="translate(-267.032 -40.954)"/>
      <path id="Path_958" data-name="Path 958" d="M360.28,68.342a4.662,4.662,0,0,1-3.988-1.579,6.825,6.825,0,0,1-1.053-4.244V54.35h4.507v7.882c0,1.671.643,2.384,2.15,2.384,1.1,0,2.384-.781,2.384-2.984V54.35h4.507v13.6H364.41V66.115a5.046,5.046,0,0,1-4.13,2.227m-4.964-13.914v8.091c0,4.027,1.485,5.745,4.964,5.745a4.957,4.957,0,0,0,4.084-2.222l.011-.019h.113v1.85h4.222V54.428h-4.352v7.2c0,2.26-1.326,3.061-2.462,3.061-1.561,0-2.227-.736-2.227-2.462v-7.8Z" transform="translate(-266.915 -40.837)"/>
      <path id="Path_959" data-name="Path 959" d="M421.521,53.325h4.3v1.85h.052a4.478,4.478,0,0,1,3.882-2.241,3.907,3.907,0,0,1,3.934,2.189,4.863,4.863,0,0,1,4.221-2.189c4.3,0,4.768,3.257,4.768,5.837v8.077h-4.429V58.9c0-1.459-.7-2.319-1.85-2.319-1.9,0-2.085,1.459-2.085,3.648v6.618h-4.429V59.162c0-1.59-.443-2.58-1.668-2.58-1.589,0-2.267.938-2.267,3.674v6.592h-4.429Z" transform="translate(-316.717 -39.773)"/>
      <path id="Path_960" data-name="Path 960" d="M442.6,66.77h-4.507V58.784c0-1.428-.677-2.28-1.811-2.28-1.9,0-2.046,1.5-2.046,3.609V66.77h-4.507V59.044c0-1.733-.518-2.541-1.629-2.541-1.624,0-2.228.985-2.228,3.635V66.77h-4.507v-13.6h4.377V55a4.537,4.537,0,0,1,3.9-2.227c1.955,0,3.28.724,3.942,2.151a4.913,4.913,0,0,1,4.213-2.151c4.261,0,4.807,3.14,4.807,5.875Zm-4.43-.078h4.352V58.653c0-2.7-.538-5.8-4.729-5.8a4.8,4.8,0,0,0-4.19,2.173l-.039.054-.027-.061c-.639-1.437-1.95-2.166-3.9-2.166a4.461,4.461,0,0,0-3.849,2.222l-.011.019h-.113v-1.85h-4.221V66.692h4.352V60.139c0-2.672.646-3.713,2.306-3.713,1.148,0,1.706.857,1.706,2.619v7.647h4.352V60.112c0-2.159.152-3.687,2.124-3.687,1.182,0,1.889.882,1.889,2.358Z" transform="translate(-316.6 -39.656)"/>
      <path id="Path_961" data-name="Path 961" d="M0,17.409,30.153,0V34.818L15.271,26.192,0,34.818Z" transform="translate(0 0)"/>
    </g>
  </g>
</svg>
