<svg id="Group_52" data-name="Group 52" xmlns="http://www.w3.org/2000/svg" xmlns:xlink="http://www.w3.org/1999/xlink" width="425" height="432.396" viewBox="0 0 425 432.396">
  <defs>
    <clipPath id="clip-path">
      <rect id="Rectangle_43" data-name="Rectangle 43" width="425" height="432.396" fill="none"/>
    </clipPath>
    <clipPath id="clip-path-2">
      <rect id="Rectangle_34" data-name="Rectangle 34" width="11.585" height="18.974" fill="none"/>
    </clipPath>
    <clipPath id="clip-path-4">
      <rect id="Rectangle_36" data-name="Rectangle 36" width="10.753" height="18.974" fill="none"/>
    </clipPath>
    <clipPath id="clip-path-6">
      <rect id="Rectangle_38" data-name="Rectangle 38" width="10.699" height="18.974" fill="none"/>
    </clipPath>
  </defs>
  <path id="Path_942" data-name="Path 942" d="M411.68,425.347,8.464,424.388,6.508,11.379" transform="translate(0.017 0.029)" fill="none" stroke="#000" stroke-width="0.966"/>
  <g id="Group_83" data-name="Group 83">
    <g id="Group_82" data-name="Group 82" clip-path="url(#clip-path)">
      <path id="Path_943" data-name="Path 943" d="M7.983,62.683c141.358,3.182,216.967,66.049,269.2,125.409,94.033,106.871,88.863,237.517,88.863,237.517" transform="translate(0.02 0.16)" fill="none" stroke="#4040ff" stroke-width="2.2"/>
      <line id="Line_358" data-name="Line 358" y2="248.815" transform="translate(259.915 173.743)" fill="none" stroke="#000" stroke-width="1.058" stroke-dasharray="6.348 6.348"/>
      <path id="Path_944" data-name="Path 944" d="M6.312,0l6.944,17.3s-6-8.45-13.256,0Z"/>
      <path id="Path_945" data-name="Path 945" d="M423.959,424.382l-17.3,6.944s8.45-6,0-13.256Z" transform="translate(1.041 1.07)"/>
      <path id="Path_946" data-name="Path 946" d="M263.928,170.676a4.355,4.355,0,1,1-4.354-4.354,4.354,4.354,0,0,1,4.354,4.354" transform="translate(0.653 0.426)"/>
      <path id="Path_947" data-name="Path 947" d="M376.856,167.2a4.355,4.355,0,1,1-4.354-4.354,4.354,4.354,0,0,1,4.354,4.354" transform="translate(0.942 0.417)"/>
      <path id="Path_948" data-name="Path 948" d="M365.564,372.21a4.355,4.355,0,1,1-4.354-4.354,4.354,4.354,0,0,1,4.354,4.354" transform="translate(0.913 0.941)"/>
      <path id="Path_949" data-name="Path 949" d="M65.868,67.3a4.355,4.355,0,1,1-4.354-4.354A4.354,4.354,0,0,1,65.868,67.3" transform="translate(0.146 0.161)"/>
      <line id="Line_359" data-name="Line 359" x1="47.372" transform="translate(7.928 67.464)" fill="none" stroke="#000" stroke-width="1.261" stroke-dasharray="7.569 7.569"/>
      <line id="Line_360" data-name="Line 360" y2="45.888" transform="translate(361.252 379.818)" fill="none" stroke="#000" stroke-width="1.058" stroke-dasharray="6.348 6.348"/>
      <line id="Line_361" data-name="Line 361" x1="351.145" transform="translate(8.014 372.28)" fill="none" stroke="#000" stroke-width="1.058" stroke-dasharray="6.348 6.348"/>
      <line id="Line_362" data-name="Line 362" y2="352.88" transform="translate(60.79 70.43)" fill="none" stroke="#000" stroke-width="1.058" stroke-dasharray="6.348 6.348"/>
      <line id="Line_363" data-name="Line 363" x1="248.815" transform="translate(8.667 171.102)" fill="none" stroke="#000" stroke-width="1.058" stroke-dasharray="6.348 6.348"/>
      <g id="Group_57" data-name="Group 57" transform="translate(266.323 154.723)" style="mix-blend-mode: normal;isolation: isolate">
        <g id="Group_56" data-name="Group 56">
          <g id="Group_55" data-name="Group 55" clip-path="url(#clip-path-2)">
            <g id="Group_54" data-name="Group 54" style="mix-blend-mode: normal;isolation: isolate">
              <g id="Group_53" data-name="Group 53">
                <g id="Group_52-2" data-name="Group 52" clip-path="url(#clip-path-2)">
                  <text id="D" transform="translate(0.001 12.731)" font-size="14" font-family="ArialMT, Arial"><tspan x="0" y="0">D</tspan></text>
                </g>
              </g>
            </g>
          </g>
        </g>
      </g>
      <path id="Path_950" data-name="Path 950" d="M175.322,265.362a4.355,4.355,0,1,1-4.354-4.354,4.354,4.354,0,0,1,4.354,4.354" transform="translate(0.426 0.668)"/>
      <g id="Group_63" data-name="Group 63" transform="translate(178.712 248.531)" style="mix-blend-mode: normal;isolation: isolate">
        <g id="Group_62" data-name="Group 62">
          <g id="Group_61" data-name="Group 61" clip-path="url(#clip-path-4)">
            <g id="Group_60" data-name="Group 60" style="mix-blend-mode: normal;isolation: isolate">
              <g id="Group_59" data-name="Group 59">
                <g id="Group_58" data-name="Group 58" clip-path="url(#clip-path-4)">
                  <text id="A" transform="translate(0.024 12.73)" font-size="14" font-family="ArialMT, Arial"><tspan x="0" y="0">A</tspan></text>
                </g>
              </g>
            </g>
          </g>
        </g>
      </g>
      <g id="Group_69" data-name="Group 69" transform="translate(66.629 49.094)" style="mix-blend-mode: normal;isolation: isolate">
        <g id="Group_68" data-name="Group 68">
          <g id="Group_67" data-name="Group 67" clip-path="url(#clip-path-6)">
            <g id="Group_66" data-name="Group 66" style="mix-blend-mode: normal;isolation: isolate">
              <g id="Group_65" data-name="Group 65">
                <g id="Group_64" data-name="Group 64" clip-path="url(#clip-path-6)">
                  <text id="B" transform="translate(0 12.731)" font-size="14" font-family="ArialMT, Arial"><tspan x="0" y="0">B</tspan></text>
                </g>
              </g>
            </g>
          </g>
        </g>
      </g>
      <g id="Group_75" data-name="Group 75" transform="translate(381.025 150.119)" style="mix-blend-mode: normal;isolation: isolate">
        <g id="Group_74" data-name="Group 74">
          <g id="Group_73" data-name="Group 73" clip-path="url(#clip-path-6)">
            <g id="Group_72" data-name="Group 72" style="mix-blend-mode: normal;isolation: isolate">
              <g id="Group_71" data-name="Group 71">
                <g id="Group_70" data-name="Group 70" clip-path="url(#clip-path-6)">
                  <text id="X" transform="translate(0.001 12.73)" font-size="14" font-family="ArialMT, Arial"><tspan x="0" y="0">X</tspan></text>
                </g>
              </g>
            </g>
          </g>
        </g>
      </g>
      <g id="Group_81" data-name="Group 81" transform="translate(367.961 355.653)" style="mix-blend-mode: normal;isolation: isolate">
        <g id="Group_80" data-name="Group 80">
          <g id="Group_79" data-name="Group 79" clip-path="url(#clip-path-2)">
            <g id="Group_78" data-name="Group 78" style="mix-blend-mode: normal;isolation: isolate">
              <g id="Group_77" data-name="Group 77">
                <g id="Group_76" data-name="Group 76" clip-path="url(#clip-path-2)">
                  <text id="C" transform="translate(0 12.73)" font-size="14" font-family="ArialMT, Arial"><tspan x="0" y="0">C</tspan></text>
                </g>
              </g>
            </g>
          </g>
        </g>
      </g>
    </g>
  </g>
</svg>
