<svg id="Group_9096" data-name="Group 9096" xmlns="http://www.w3.org/2000/svg" width="276" height="171.813" viewBox="0 0 276 171.813">
  <path id="Path_14910" data-name="Path 14910" d="M116.974,220.539,141.195,196.8q17.091-15.553,26.488-26.691t13.083-20.292a49.307,49.307,0,0,0,3.685-18.55,44.917,44.917,0,0,0-7.371-25.436,49.566,49.566,0,0,0-20.616-17.376q-13.245-6.277-31.067-6.278A75.871,75.871,0,0,0,106.709,84.4L68.58,135.564h31.464a28.618,28.618,0,0,1,3.078-13.69,21.22,21.22,0,0,1,8.749-8.829,27.422,27.422,0,0,1,13.284-3.078,28.78,28.78,0,0,1,13.042,2.875,22.17,22.17,0,0,1,9.072,8.182,23.252,23.252,0,0,1,3.322,12.6,28.061,28.061,0,0,1-2.673,12.191,50.039,50.039,0,0,1-7.817,11.463q-5.145,5.832-12.677,13.123L68.37,225.075v25.274H186.639V221.673H116.974Z" transform="translate(-68.37 -82.181)"/>
  <path id="Path_14911" data-name="Path 14911" d="M321.641,167.561q.08-27.137-8.019-46.213T290.495,92.226q-15.026-10.044-35.846-10.045t-35.844,10q-15.026,10.005-23.086,29.122t-8.06,46.254q-.082,27.218,7.979,46.578t23.086,29.567q15.026,10.207,35.925,10.288a72.29,72.29,0,0,0,17.131-1.948l48.758-65.425a157.282,157.282,0,0,0,1.1-19.06m-44.229,43.014q-8.506,14.337-22.763,14.338a23.877,23.877,0,0,1-16.524-6.359q-7.047-6.359-10.9-19.118t-3.847-31.875q.079-28.27,8.586-42.447t22.681-14.176a23.82,23.82,0,0,1,16.486,6.319q7.006,6.318,10.855,18.874t3.847,31.43q.08,28.675-8.424,43.014" transform="translate(-45.642 -82.181)"/>
</svg>
